<svg width="12" height="8" viewBox="0 0 12 8" fill="none" xmlns="http://www.w3.org/2000/svg">
<path d="M10.9305 1.0795C10.8168 0.973502 10.6381 0.973502 10.5244 1.0795L4.59448 6.43975C4.54574 6.48517 4.48076 6.48517 4.43202 6.43975L1.49145 3.77476C1.37773 3.66877 1.19902 3.66877 1.08529 3.77476C0.971569 3.88076 0.971569 4.04732 1.08529 4.15331L4.02586 6.8183C4.15583 6.93943 4.33454 7 4.497 7C4.67571 7 4.83818 6.93943 4.96815 6.8183L10.898 1.45804C11.028 1.35205 11.028 1.18549 10.9305 1.0795Z" fill="#3056D3"/>
<path fill-rule="evenodd" clip-rule="evenodd" d="M11.2146 0.797363L11.2251 0.808704C11.4696 1.07459 11.4666 1.50202 11.1603 1.76027L5.23851 7.11318C5.0308 7.3056 4.77021 7.39998 4.49712 7.39998C4.24506 7.39998 3.96676 7.30867 3.75554 7.11301L0.812654 4.44593C0.529228 4.18177 0.529254 3.74629 0.812681 3.48213C1.07921 3.23371 1.49438 3.23295 1.76182 3.47984L4.5136 5.97373L10.2545 0.784349C10.5219 0.537684 10.9369 0.538521 11.2034 0.786858L11.2146 0.797363ZM1.49156 3.77474C1.37784 3.66875 1.19913 3.66875 1.0854 3.77474C0.97168 3.88073 0.97168 4.04729 1.0854 4.15329L4.02597 6.81827C4.15594 6.93941 4.33465 6.99998 4.49712 6.99998C4.67582 6.99998 4.83829 6.93941 4.96826 6.81827L10.8981 1.45802C11.0281 1.35203 11.0281 1.18546 10.9306 1.07947C10.8169 0.973477 10.6382 0.973477 10.5245 1.07947L4.59459 6.43972C4.54585 6.48515 4.48087 6.48515 4.43213 6.43972L1.49156 3.77474Z" fill="#3056D3"/>
</svg>
